:SAMPLES-PER-SECOND 30
:FULLY-SPECIFIED
:DEGREES
809
root  14.5375 40.8 8.64942 33.3039 86.965 31.9615
RightUpLeg  -3.73159 -10.4746 -8.77783
RightLeg  7.07653 -7.22163 3.12119
RightFoot  -0.581494 -0.0267264 0.23795
RightToes  0.000481921 0.542163 -0.142578
Spine  7.91095 -1.34456 0.115503
Spine1  -3.82589 -1.55917 1.35494
HEad  13.4376 1.87526 1.05624
LeftShoulder1  6.66071 -11.4281 -38.435
LeftArm  -11.3283 8.97046 -35.0377
LeftForeArm  179.657 -49.5826 -168.804
LeftHand  -0.25398 0.0180481 5.50724
RightShoulder  3.91002 6.87838 31.7178
RightArm  -0.515735 1.50109 49.014
RightForeArm  174.342 54.3723 166.343
RightHand  -0.364104 1.1461 -6.60093
LeftUpLeg  0.874579 6.38119 5.16753
LeftLeg  0.0492918 19.3215 -4.51372
LeftFoot  0.999112 0.347625 -3.28444
LeftToes  1.06247e-005 4.65869e-005 -8.65511e-006
810
root  14.5087 40.7896 8.67053 32.7613 86.9326 31.3837
RightUpLeg  -3.92701 -10.5916 -8.74263
RightLeg  7.29725 -7.05178 3.15307
RightFoot  -0.660782 -0.0230845 0.199389
RightToes  0.000481921 0.542163 -0.142578
Spine  7.59858 -1.27537 -0.484693
Spine1  -2.55085 -1.66895 2.17028
HEad  12.1961 1.71906 0.259791
LeftShoulder1  6.67366 -11.4165 -38.5514
LeftArm  -10.7565 12.4061 -35.6997
LeftForeArm  179.103 -50.0741 -168.574
LeftHand  -0.25398 0.0180481 5.50724
RightShoulder  3.89648 6.814 31.8153
RightArm  0.476403 -2.24041 48.2618
RightForeArm  172.624 55.0604 165.869
RightHand  -0.454216 1.86506 -7.47353
LeftUpLeg  0.668859 6.45607 5.2329
LeftLeg  0.341774 19.2925 -4.45788
LeftFoot  0.906479 0.352215 -3.33266
LeftToes  1.06247e-005 4.65869e-005 -8.65511e-006
811
root  14.4626 40.785 8.68998 34.6295 87.0854 33.1776
RightUpLeg  -4.11281 -10.6437 -8.69288
RightLeg  7.43285 -7.18473 3.13522
RightFoot  -0.68128 -0.0196239 0.16153
RightToes  0.000481921 0.542163 -0.142578
Spine  7.82 -1.29934 -0.950205
Spine1  -2.17487 -1.84927 2.90978
HEad  11.4814 1.69612 -0.525533
LeftShoulder1  6.67977 -11.4473 -38.5026
LeftArm  -10.2315 14.8193 -35.5907
LeftForeArm  178.027 -50.2531 -168.427
LeftHand  -0.25398 0.0180481 5.50724
RightShoulder  3.68595 6.48323 30.9539
RightArm  1.15301 -5.15258 48.1918
RightForeArm  171.574 55.8681 165.373
RightHand  -0.511826 2.20955 -8.04451
LeftUpLeg  0.414273 6.48855 5.27282
LeftLeg  0.506163 19.0921 -4.43091
LeftFoot  0.897177 0.35833 -3.39397
LeftToes  1.06247e-005 4.65869e-005 -8.65511e-006
812
root  14.4066 40.7874 8.70434 37.382 87.2595 35.8123
RightUpLeg  -4.32248 -10.629 -8.63401
RightLeg  7.48954 -7.45668 3.08751
RightFoot  -0.635006 -0.0160951 0.121442
RightToes  0.000481921 0.542163 -0.142578
Spine  8.52164 -1.39993 -0.847365
Spine1  -2.70174 -1.92621 2.82059
HEad  11.398 1.75121 -0.687544
LeftShoulder1  6.64454 -11.4694 -38.2139
LeftArm  -9.81011 16.0661 -34.9192
LeftForeArm  177.116 -50.2151 -168.378
LeftHand  -0.25398 0.0180481 5.50724
RightShoulder  3.58889 6.31019 30.6119
RightArm  1.27968 -7.06585 48.0112
RightForeArm  169.977 56.1314 165.103
RightHand  -0.58391 2.30327 -9.03217
LeftUpLeg  0.196694 6.46998 5.27067
LeftLeg  0.426133 18.9084 -4.4639
LeftFoot  1.01986 0.363237 -3.4119
LeftToes  1.06247e-005 4.65869e-005 -8.65511e-006
813
root  14.3485 40.7925 8.71285 40.0549 87.3572 38.2685
RightUpLeg  -4.6039 -10.6116 -8.60151
RightLeg  7.4374 -7.67146 3.08372
RightFoot  -0.543591 -0.0142993 0.10709
RightToes  0.000481921 0.542163 -0.142578
Spine  9.12351 -1.50986 -0.372563
Spine1  -3.36148 -1.88881 2.11051
HEad  11.6223 1.78928 -0.424266
LeftShoulder1  6.56397 -11.4179 -37.8423
LeftArm  -9.65513 15.9806 -34.1876
LeftForeArm  177.324 -50.1446 -168.421
LeftHand  -0.25398 0.0180481 5.50724
RightShoulder  3.70511 6.46705 31.2063
RightArm  0.859672 -7.70401 47.333
RightForeArm  166.679 55.831 164.995
RightHand  -0.70611 2.5087 -10.6032
LeftUpLeg  -0.0518841 6.40884 5.20773
LeftLeg  0.181475 18.856 -4.53667
LeftFoot  1.23852 0.365094 -3.37877
LeftToes  1.06247e-005 4.65869e-005 -8.65511e-006
814
root  14.2898 40.7985 8.7184 42.8069 87.4316 40.7261
RightUpLeg  -4.8976 -10.5743 -8.58726
RightLeg  7.23299 -7.87163 3.13927
RightFoot  -0.400164 -0.0137964 0.111649
RightToes  0.000481921 0.542163 -0.142578
Spine  9.27351 -1.53698 -0.0882787
Spine1  -3.60463 -1.8383 1.72795
HEad  11.8433 1.80927 -0.360475
LeftShoulder1  6.49088 -11.2894 -37.7344
LeftArm  -9.82024 14.567 -33.7086
LeftForeArm  178.576 -50.3133 -168.442
LeftHand  -0.25398 0.0180481 5.50724
RightShoulder  3.84787 6.6791 31.8422
RightArm  0.111225 -6.93361 46.583
RightForeArm  163.869 55.5442 164.92
RightHand  -0.811867 2.78662 -11.7706
LeftUpLeg  -0.374356 6.32338 5.11299
LeftLeg  -0.0908835 18.8668 -4.60547
LeftFoot  1.481 0.363792 -3.31987
LeftToes  1.06247e-005 4.65869e-005 -8.65511e-006
